<svg xmlns="http://www.w3.org/2000/svg" style="display: none;">
  <symbol id="icon-1" viewBox="0 0 24 24" >
    <path d="M9.43814 0.016758C10.5298 9.15527e-05 11.6131 0.00842478 12.6964 9.15527e-05C12.7631 1.27508 13.2214 2.57506 14.1547 3.47505C15.0881 4.40004 16.4047 4.82503 17.688 4.9667V8.32499C16.488 8.28332 15.2797 8.03332 14.1881 7.51666C13.7131 7.3 13.2714 7.025 12.8381 6.74167C12.8298 9.17498 12.8464 11.6083 12.8214 14.0332C12.7548 15.1999 12.3714 16.3582 11.6964 17.3165C10.6048 18.9165 8.71315 19.9582 6.7715 19.9915C5.57985 20.0582 4.3882 19.7332 3.37155 19.1332C1.68823 18.1415 0.504916 16.3249 0.329918 14.3749C0.313251 13.9583 0.304918 13.5416 0.321585 13.1333C0.471583 11.5499 1.25491 10.0333 2.47156 8.99998C3.85487 7.79999 5.78818 7.225 7.59649 7.56666C7.61316 8.79998 7.56316 10.0333 7.56316 11.2666C6.73817 11 5.77152 11.075 5.04653 11.5749C4.52153 11.9166 4.12154 12.4416 3.91321 13.0333C3.73821 13.4583 3.78821 13.9249 3.79654 14.3749C3.99654 15.7416 5.31319 16.8915 6.71317 16.7665C7.64649 16.7582 8.53815 16.2166 9.02147 15.4249C9.17981 15.1499 9.3548 14.8666 9.36314 14.5416C9.44647 13.0499 9.41314 11.5666 9.42147 10.075C9.4298 6.71667 9.41314 3.36672 9.43814 0.016758Z" fill="white"/>
  </symbol>
  <symbol id="icon-2" viewBox="0 0 24 24">
    <path d="M16.7818 5.64033C16.6714 5.64033 16.5655 5.59646 16.4874 5.51837C16.4093 5.44029 16.3654 5.33438 16.3654 5.22394C16.3654 5.11351 16.4093 5.0076 16.4874 4.92951C16.5655 4.85142 16.6714 4.80755 16.7818 4.80755M16.7818 5.64033C16.8923 5.64033 16.9982 5.59646 17.0763 5.51837C17.1544 5.44029 17.1982 5.33438 17.1982 5.22394C17.1982 5.11351 17.1544 5.0076 17.0763 4.92951C16.9982 4.85142 16.8923 4.80755 16.7818 4.80755" stroke="white" stroke-width="1.5" stroke-linecap="round" stroke-linejoin="round"/>
    <path d="M1.00069 5.28557C1.00069 4.14899 1.45219 3.05896 2.25588 2.25528C3.05956 1.4516 4.14959 1.00009 5.28617 1.00009H16.7152C17.278 1.00009 17.8353 1.11094 18.3552 1.3263C18.8751 1.54167 19.3476 1.85734 19.7455 2.25528C20.1434 2.65322 20.4591 3.12565 20.6745 3.64559C20.8898 4.16552 21.0007 4.72279 21.0007 5.28557V16.7146C21.0007 17.8512 20.5492 18.9412 19.7455 19.7449C18.9418 20.5486 17.8518 21.0001 16.7152 21.0001H5.2845C4.14792 21.0001 3.05789 20.5486 2.25421 19.7449C1.45053 18.9412 0.999023 17.8512 0.999023 16.7146V5.2839L1.00069 5.28557Z" stroke="white" stroke-width="1.5" stroke-linecap="round" stroke-linejoin="round"/>
    <path d="M6.75352 11.0001C6.75352 11.5578 6.86338 12.1101 7.07682 12.6254C7.29026 13.1407 7.6031 13.6089 7.99749 14.0033C8.39187 14.3977 8.86008 14.7105 9.37537 14.924C9.89066 15.1374 10.4429 15.2473 11.0007 15.2473C11.5584 15.2473 12.1107 15.1374 12.626 14.924C13.1413 14.7105 13.6095 14.3977 14.0039 14.0033C14.3983 13.6089 14.7111 13.1407 14.9246 12.6254C15.138 12.1101 15.2479 11.5578 15.2479 11.0001C15.2479 9.87367 14.8004 8.79339 14.0039 7.99689C13.2074 7.20039 12.1271 6.75292 11.0007 6.75292C9.87427 6.75292 8.79399 7.20039 7.99749 7.99689C7.20099 8.79339 6.75352 9.87367 6.75352 11.0001Z" stroke="white" stroke-width="1.5" stroke-linecap="round" stroke-linejoin="round"/>
  </symbol>
  <symbol id="icon-3" viewBox="0 0 24 24">
    <path d="M3.60146 19.027V11.753H0.817461C0.672918 11.753 0.534295 11.6956 0.432088 11.5934C0.329881 11.4912 0.272461 11.3525 0.272461 11.208V8.33099C0.272461 8.18644 0.329881 8.04782 0.432088 7.94561C0.534295 7.84341 0.672918 7.78599 0.817461 7.78599H3.59046V5.00099C3.52413 4.34054 3.60319 3.67358 3.82211 3.04694C4.04103 2.42031 4.39448 1.84921 4.85765 1.37374C5.32082 0.898279 5.88247 0.529987 6.50315 0.294734C7.12384 0.0594809 7.7885 -0.0370277 8.45046 0.0119871H10.7705C10.9164 0.011701 11.0566 0.0687885 11.1608 0.170934C11.265 0.273079 11.3248 0.412093 11.3275 0.557987V2.99399C11.3243 3.13962 11.2643 3.27823 11.1601 3.38011C11.056 3.48199 10.9161 3.53902 10.7705 3.53899H9.32046C7.75446 3.53899 7.45346 4.28099 7.45346 5.37199V7.78499H11.1765C11.2538 7.78242 11.3308 7.79675 11.4021 7.82696C11.4734 7.85717 11.5373 7.90255 11.5892 7.95994C11.6412 8.01733 11.68 8.08535 11.703 8.15928C11.726 8.2332 11.7327 8.31124 11.7225 8.38799L11.3855 11.276C11.3686 11.4083 11.3038 11.5298 11.2034 11.6175C11.1029 11.7052 10.9738 11.7531 10.8405 11.752H7.47646V19.026C7.47808 19.1544 7.45395 19.2819 7.40551 19.4009C7.35707 19.5198 7.2853 19.6279 7.19442 19.7187C7.10355 19.8094 6.99542 19.8811 6.8764 19.9294C6.75739 19.9777 6.6299 20.0017 6.50146 20H4.56446C4.43699 20.0003 4.31074 19.9752 4.19306 19.9262C4.07538 19.8772 3.96862 19.8053 3.879 19.7146C3.78937 19.624 3.71868 19.5164 3.67103 19.3982C3.62339 19.28 3.59974 19.1544 3.60146 19.027Z" fill="white"/>
  </symbol>
  <symbol id="icon-4" viewBox="0 0 24 24">
    <path d="M17.9453 4.92783C17.957 5.10361 17.957 5.28329 17.957 5.45908C17.957 10.877 13.832 17.1231 6.29297 17.1231C3.96875 17.1231 1.8125 16.4513 0 15.2833C0.328125 15.3224 0.648438 15.3341 0.988281 15.3341C2.90625 15.3341 4.66797 14.6856 6.07812 13.5841C4.27734 13.545 2.76562 12.3653 2.24609 10.7403C2.5 10.7794 2.75391 10.8028 3.01953 10.8028C3.38672 10.8028 3.75391 10.752 4.09766 10.6622C2.21875 10.2833 0.8125 8.63095 0.8125 6.63876V6.58798C1.35938 6.89267 1.99219 7.08408 2.66406 7.10751C1.55859 6.37314 0.835938 5.11533 0.835938 3.69345C0.835938 2.93173 1.03906 2.23251 1.39453 1.62314C3.41406 4.11142 6.44531 5.73642 9.84766 5.9122C9.78516 5.60751 9.74609 5.29111 9.74609 4.9747C9.74609 2.71689 11.5742 0.877045 13.8438 0.877045C15.0234 0.877045 16.0898 1.37314 16.8398 2.17001C17.7656 1.99423 18.6562 1.65048 19.4414 1.18173C19.1367 2.13486 18.4883 2.93173 17.6406 3.43954C18.4648 3.3497 19.2656 3.12314 20 2.80673C19.4414 3.61923 18.7422 4.34189 17.9453 4.92783Z" fill="white"/>
  </symbol>
  <symbol id="icon-5" viewBox="0 0 24 24">
    <path d="M18.5714 9.15527e-05H1.42411C0.638393 9.15527e-05 0 0.647413 0 1.44206V18.5581C0 19.3528 0.638393 20.0001 1.42411 20.0001H18.5714C19.3571 20.0001 20 19.3528 20 18.5581V1.44206C20 0.647413 19.3571 9.15527e-05 18.5714 9.15527e-05ZM6.04464 17.1429H3.08036V7.59831H6.04911V17.1429H6.04464ZM4.5625 6.29473C3.61161 6.29473 2.84375 5.52241 2.84375 4.57598C2.84375 3.62956 3.61161 2.85723 4.5625 2.85723C5.50893 2.85723 6.28125 3.62956 6.28125 4.57598C6.28125 5.52688 5.51339 6.29473 4.5625 6.29473ZM17.1562 17.1429H14.192V12.5001C14.192 11.3929 14.1696 9.96884 12.6518 9.96884C11.1071 9.96884 10.8705 11.1742 10.8705 12.4197V17.1429H7.90625V7.59831H10.75V8.90188H10.7902C11.1875 8.15188 12.1563 7.3617 13.5982 7.3617C16.5982 7.3617 17.1562 9.33938 17.1562 11.9108V17.1429Z" fill="white"/>
  </symbol>
</svg>
