<?xml version="1.0" standalone="no"?>
<!DOCTYPE svg PUBLIC "-//W3C//DTD SVG 20010904//EN"
 "http://www.w3.org/TR/2001/REC-SVG-20010904/DTD/svg10.dtd">
<svg version="1.0" xmlns="http://www.w3.org/2000/svg"
 width="700.000000pt" height="700.000000pt" viewBox="0 0 700.000000 700.000000"
 preserveAspectRatio="xMidYMid meet">
<metadata>
Created by potrace 1.14, written by Peter Selinger 2001-2017
</metadata>
<g transform="translate(0.000000,700.000000) scale(0.100000,-0.100000)"
fill="#000000" stroke="none">
<path d="M131 6974 c-58 -29 -105 -84 -122 -143 -7 -25 -9 -1090 -7 -3352 l3
-3316 30 -49 c19 -30 49 -60 79 -79 l49 -30 3337 0 3337 0 49 30 c30 19 60 49
79 79 l30 49 0 3337 0 3337 -30 49 c-19 30 -49 60 -79 79 l-49 30 -3327 3
-3326 2 -53 -26z m6050 -692 c39 -20 62 -41 84 -77 l30 -48 0 -1747 0 -1747
-30 -48 c-22 -36 -45 -57 -84 -77 l-53 -28 -2628 0 -2628 0 -53 28 c-39 20
-62 41 -84 77 l-30 48 0 1747 0 1747 30 48 c22 36 45 57 84 77 l53 28 2628 0
2628 0 53 -28z m-2570 -4447 c24 -17 55 -53 73 -85 27 -48 31 -66 34 -152 5
-116 -8 -197 -53 -338 -56 -171 -130 -301 -235 -411 -46 -48 -44 -51 40 -69
117 -25 229 23 562 240 193 126 208 137 214 170 45 233 323 493 644 601 74 25
118 33 197 37 169 8 256 -29 448 -192 50 -42 119 -91 155 -109 62 -31 69 -32
185 -32 155 0 243 25 301 85 46 48 93 55 118 18 25 -35 19 -65 -20 -108 -79
-88 -244 -136 -439 -128 -158 7 -228 39 -410 193 -118 100 -193 137 -288 143
-94 5 -185 -16 -303 -72 -119 -57 -202 -113 -292 -200 -66 -64 -140 -161 -130
-171 2 -2 35 8 73 22 184 68 420 28 539 -90 161 -161 108 -428 -100 -507 -258
-97 -527 15 -641 268 l-28 61 -186 -122 c-274 -180 -420 -246 -544 -247 -52 0
-145 24 -214 56 -38 17 -57 21 -66 14 -27 -22 -175 -69 -254 -81 -96 -14 -237
-7 -326 16 -86 23 -171 72 -239 140 -75 74 -112 130 -207 309 -41 77 -88 154
-105 173 -67 71 -112 44 -414 -252 -135 -133 -268 -258 -296 -278 -133 -96
-254 -119 -345 -65 -81 48 -154 137 -219 271 -58 119 -134 328 -146 406 -5 31
-2 43 15 60 26 26 73 27 93 4 8 -10 25 -54 37 -98 76 -268 188 -478 283 -526
37 -19 46 -20 82 -9 90 27 173 96 431 359 217 221 317 291 418 291 101 0 168
-62 267 -247 91 -171 124 -223 171 -276 96 -110 195 -149 374 -150 115 -1 167
8 261 43 l26 10 -28 33 c-43 51 -91 162 -105 240 -36 216 42 492 182 642 101
107 182 147 296 142 61 -2 78 -7 114 -32z"/>
<path d="M2775 5786 c-42 -18 -82 -69 -95 -119 -45 -177 -150 -312 -296 -382
-28 -13 -84 -33 -125 -44 -85 -23 -133 -64 -145 -126 -17 -91 35 -156 146
-185 110 -28 195 -74 264 -144 84 -84 124 -157 156 -284 31 -121 166 -169 255
-90 27 23 40 48 61 116 34 115 74 184 150 258 70 70 154 116 264 144 83 21
124 54 142 111 23 80 -25 169 -105 190 -199 53 -318 136 -400 279 -14 25 -37
84 -51 131 -18 58 -35 94 -54 112 -49 46 -109 58 -167 33z"/>
<path d="M4258 5086 c-21 -7 -50 -22 -65 -32 -49 -31 -1312 -1287 -1322 -1314
-5 -14 -21 -164 -35 -334 -28 -337 -27 -348 26 -374 22 -10 78 -8 335 13 181
15 321 31 339 39 47 21 1293 1286 1324 1344 35 67 35 176 1 247 -36 73 -317
357 -388 391 -64 32 -160 41 -215 20z"/>
<path d="M3401 1718 c-176 -85 -298 -399 -247 -631 16 -70 74 -182 105 -201
15 -10 95 67 147 140 132 185 221 525 170 648 -28 67 -93 83 -175 44z"/>
<path d="M4560 1162 c-103 -35 -180 -74 -180 -92 0 -34 71 -158 110 -194 22
-19 63 -48 92 -63 48 -25 62 -28 158 -28 93 0 110 3 150 25 107 60 129 183 50
274 -71 81 -257 119 -380 78z"/>
</g>
</svg>
